<svg width="139" height="46" viewBox="0 0 139 46" fill="none" xmlns="http://www.w3.org/2000/svg">
<rect y="2" width="139" height="44" rx="12" fill="#12251A"/>
<path d="M41 22H42.32V32H41V30.04C40.08 31.5067 38.7333 32.24 36.96 32.24C35.5333 32.24 34.3133 31.7333 33.3 30.72C32.3 29.7067 31.8 28.4667 31.8 27C31.8 25.5333 32.3 24.2933 33.3 23.28C34.3133 22.2667 35.5333 21.76 36.96 21.76C38.7333 21.76 40.08 22.4933 41 23.96V22ZM34.26 29.82C35.02 30.58 35.9533 30.96 37.06 30.96C38.1667 30.96 39.1 30.58 39.86 29.82C40.62 29.0467 41 28.1067 41 27C41 25.8933 40.62 24.96 39.86 24.2C39.1 23.4267 38.1667 23.04 37.06 23.04C35.9533 23.04 35.02 23.4267 34.26 24.2C33.5 24.96 33.12 25.8933 33.12 27C33.12 28.1067 33.5 29.0467 34.26 29.82ZM53.1948 32H51.4348L46.4348 27.18V32H45.1148V22H46.4348V26.42L51.1948 22H52.9948L47.8348 26.8L53.1948 32ZM63.0777 32H61.3177L56.3177 27.18V32H54.9977V22H56.3177V26.42L61.0777 22H62.8777L57.7177 26.8L63.0777 32ZM72.4844 22H73.8044V32H72.4844V30.04C71.5644 31.5067 70.2177 32.24 68.4444 32.24C67.0177 32.24 65.7977 31.7333 64.7844 30.72C63.7844 29.7067 63.2844 28.4667 63.2844 27C63.2844 25.5333 63.7844 24.2933 64.7844 23.28C65.7977 22.2667 67.0177 21.76 68.4444 21.76C70.2177 21.76 71.5644 22.4933 72.4844 23.96V22ZM65.7444 29.82C66.5044 30.58 67.4377 30.96 68.5444 30.96C69.651 30.96 70.5844 30.58 71.3444 29.82C72.1044 29.0467 72.4844 28.1067 72.4844 27C72.4844 25.8933 72.1044 24.96 71.3444 24.2C70.5844 23.4267 69.651 23.04 68.5444 23.04C67.4377 23.04 66.5044 23.4267 65.7444 24.2C64.9844 24.96 64.6044 25.8933 64.6044 27C64.6044 28.1067 64.9844 29.0467 65.7444 29.82ZM83.7992 22H85.1992L80.9192 32.92C80.5326 33.9067 79.9792 34.68 79.2592 35.24C78.5526 35.8133 77.7592 36.0667 76.8792 36V34.76C78.0792 34.8933 78.9926 34.2 79.6192 32.68L79.8792 32.06L75.3992 22H76.7992L80.5592 30.38L83.7992 22ZM93.8745 22H95.1945V32H93.8745V27.64H88.1145V32H86.7945V22H88.1145V26.36H93.8745V22ZM105.186 22V23.28H101.646V32H100.326V23.28H96.7859V22H105.186Z" fill="#1ED760"/>
</svg>
