<svg width="158" height="60" viewBox="0 0 158 60" fill="none" xmlns="http://www.w3.org/2000/svg">
<rect width="158" height="60" rx="12" fill="#12251A"/>
<path d="M47.7045 25.24C46.1979 25.24 44.9445 24.74 43.9445 23.74C42.9445 22.7267 42.4445 21.48 42.4445 20C42.4445 18.52 42.9445 17.28 43.9445 16.28C44.9445 15.2667 46.1979 14.76 47.7045 14.76C48.6912 14.76 49.5779 15 50.3645 15.48C51.1512 15.9467 51.7245 16.58 52.0845 17.38L51.0045 18C50.7379 17.4 50.3045 16.9267 49.7045 16.58C49.1179 16.22 48.4512 16.04 47.7045 16.04C46.5979 16.04 45.6645 16.4267 44.9045 17.2C44.1445 17.96 43.7645 18.8933 43.7645 20C43.7645 21.1067 44.1445 22.0467 44.9045 22.82C45.6645 23.58 46.5979 23.96 47.7045 23.96C48.4512 23.96 49.1179 23.7867 49.7045 23.44C50.2912 23.08 50.7512 22.6 51.0845 22L52.1845 22.64C51.7712 23.44 51.1645 24.0733 50.3645 24.54C49.5645 25.0067 48.6779 25.24 47.7045 25.24ZM62.362 23.74C61.3487 24.74 60.1087 25.24 58.642 25.24C57.1754 25.24 55.9287 24.74 54.902 23.74C53.8887 22.7267 53.382 21.48 53.382 20C53.382 18.52 53.8887 17.28 54.902 16.28C55.9287 15.2667 57.1754 14.76 58.642 14.76C60.1087 14.76 61.3487 15.2667 62.362 16.28C63.3887 17.28 63.902 18.52 63.902 20C63.902 21.48 63.3887 22.7267 62.362 23.74ZM55.842 22.82C56.602 23.58 57.5354 23.96 58.642 23.96C59.7487 23.96 60.682 23.58 61.442 22.82C62.202 22.0467 62.582 21.1067 62.582 20C62.582 18.8933 62.202 17.96 61.442 17.2C60.682 16.4267 59.7487 16.04 58.642 16.04C57.5354 16.04 56.602 16.4267 55.842 17.2C55.082 17.96 54.702 18.8933 54.702 20C54.702 21.1067 55.082 22.0467 55.842 22.82ZM70.8803 19.86C72.0403 20.3 72.6203 21.1 72.6203 22.26C72.6203 23.0867 72.2936 23.7933 71.6403 24.38C71.0003 24.9533 70.0803 25.24 68.8803 25.24C66.867 25.24 65.547 24.44 64.9203 22.84L66.0403 22.18C66.4536 23.3667 67.4003 23.96 68.8803 23.96C69.6536 23.96 70.247 23.7933 70.6603 23.46C71.087 23.1267 71.3003 22.7 71.3003 22.18C71.3003 21.7133 71.127 21.3333 70.7803 21.04C70.4336 20.7467 69.967 20.6 69.3803 20.6H67.9203V19.32H68.9803C69.5536 19.32 70.0003 19.18 70.3203 18.9C70.6536 18.6067 70.8203 18.2067 70.8203 17.7C70.8203 17.22 70.627 16.8267 70.2403 16.52C69.8536 16.2 69.3336 16.04 68.6803 16.04C67.427 16.04 66.5936 16.54 66.1803 17.54L65.0803 16.9C65.747 15.4733 66.947 14.76 68.6803 14.76C69.7336 14.76 70.5736 15.04 71.2003 15.6C71.827 16.1467 72.1403 16.82 72.1403 17.62C72.1403 18.6467 71.7203 19.3933 70.8803 19.86ZM82.8313 23.72H84.2313V27.68H82.9113V25H74.7513V27.68H73.4313V23.72H74.6513C75.3312 22.8267 75.6712 21.5667 75.6712 19.94V15H82.8313V23.72ZM76.2513 23.72H81.5113V16.28H76.9913V19.94C76.9913 21.4733 76.7446 22.7333 76.2513 23.72ZM94.4375 15H95.7575V25H94.4375V23.04C93.5175 24.5067 92.1708 25.24 90.3975 25.24C88.9708 25.24 87.7508 24.7333 86.7375 23.72C85.7375 22.7067 85.2375 21.4667 85.2375 20C85.2375 18.5333 85.7375 17.2933 86.7375 16.28C87.7508 15.2667 88.9708 14.76 90.3975 14.76C92.1708 14.76 93.5175 15.4933 94.4375 16.96V15ZM87.6975 22.82C88.4575 23.58 89.3908 23.96 90.4975 23.96C91.6042 23.96 92.5375 23.58 93.2975 22.82C94.0575 22.0467 94.4375 21.1067 94.4375 20C94.4375 18.8933 94.0575 17.96 93.2975 17.2C92.5375 16.4267 91.6042 16.04 90.4975 16.04C89.3908 16.04 88.4575 16.4267 87.6975 17.2C86.9375 17.96 86.5575 18.8933 86.5575 20C86.5575 21.1067 86.9375 22.0467 87.6975 22.82ZM105.752 15V16.28H102.212V25H100.892V16.28H97.3523V15H105.752ZM111.421 18.8C112.354 18.8 113.141 19.0933 113.781 19.68C114.434 20.2533 114.761 20.9933 114.761 21.9C114.761 22.8067 114.434 23.5533 113.781 24.14C113.141 24.7133 112.354 25 111.421 25H107.361V15H108.681V18.8H111.421ZM111.421 23.72C111.981 23.72 112.454 23.5533 112.841 23.22C113.241 22.8867 113.441 22.4467 113.441 21.9C113.441 21.3533 113.241 20.9133 112.841 20.58C112.454 20.2467 111.981 20.08 111.421 20.08H108.681V23.72H111.421ZM30.907 47.74C29.8936 48.74 28.6536 49.24 27.187 49.24C25.7203 49.24 24.4736 48.74 23.447 47.74C22.4336 46.7267 21.927 45.48 21.927 44C21.927 42.52 22.4336 41.28 23.447 40.28C24.4736 39.2667 25.7203 38.76 27.187 38.76C28.6536 38.76 29.8936 39.2667 30.907 40.28C31.9336 41.28 32.447 42.52 32.447 44C32.447 45.48 31.9336 46.7267 30.907 47.74ZM24.387 46.82C25.147 47.58 26.0803 47.96 27.187 47.96C28.2936 47.96 29.227 47.58 29.987 46.82C30.747 46.0467 31.127 45.1067 31.127 44C31.127 42.8933 30.747 41.96 29.987 41.2C29.227 40.4267 28.2936 40.04 27.187 40.04C26.0803 40.04 25.147 40.4267 24.387 41.2C23.627 41.96 23.247 42.8933 23.247 44C23.247 45.1067 23.627 46.0467 24.387 46.82ZM39.0959 49.24C37.6559 49.24 36.4559 48.7667 35.4959 47.82C34.5359 46.86 34.0559 45.62 34.0559 44.1C34.0559 42.3933 34.3092 41.0867 34.8159 40.18C35.3225 39.26 36.3492 38.4267 37.8959 37.68C38.1892 37.5333 38.5759 37.36 39.0559 37.16C39.5492 36.96 39.9159 36.8 40.1559 36.68C40.4092 36.56 40.6825 36.4067 40.9759 36.22C41.2692 36.02 41.4892 35.8 41.6359 35.56C41.7825 35.32 41.8759 35.0333 41.9159 34.7L42.9559 35.3C42.9025 35.62 42.7959 35.92 42.6359 36.2C42.4759 36.48 42.3092 36.7067 42.1359 36.88C41.9759 37.0533 41.7159 37.2467 41.3559 37.46C41.0092 37.66 40.7359 37.8067 40.5359 37.9C40.3492 37.98 40.0159 38.12 39.5359 38.32C39.0692 38.52 38.7559 38.6533 38.5959 38.72C37.6625 39.12 36.9759 39.54 36.5359 39.98C36.0959 40.4067 35.7825 40.9667 35.5959 41.66C36.0492 41.06 36.6225 40.62 37.3159 40.34C38.0225 40.0467 38.7092 39.9 39.3759 39.9C40.7092 39.9 41.8092 40.34 42.6759 41.22C43.5559 42.0867 43.9959 43.2 43.9959 44.56C43.9959 45.9067 43.5292 47.0267 42.5959 47.92C41.6759 48.8 40.5092 49.24 39.0959 49.24ZM39.0959 47.92C40.1359 47.92 40.9892 47.6067 41.6559 46.98C42.3359 46.34 42.6759 45.5333 42.6759 44.56C42.6759 43.5733 42.3559 42.7667 41.7159 42.14C41.0892 41.5 40.2492 41.18 39.1959 41.18C38.2492 41.18 37.3892 41.48 36.6159 42.08C35.8425 42.6667 35.4559 43.4533 35.4559 44.44C35.4559 45.4533 35.8025 46.2867 36.4959 46.94C37.2025 47.5933 38.0692 47.92 39.0959 47.92ZM50.6635 49.24C49.1568 49.24 47.9035 48.74 46.9035 47.74C45.9035 46.7267 45.4035 45.48 45.4035 44C45.4035 42.52 45.9035 41.28 46.9035 40.28C47.9035 39.2667 49.1568 38.76 50.6635 38.76C51.6502 38.76 52.5368 39 53.3235 39.48C54.1102 39.9467 54.6835 40.58 55.0435 41.38L53.9635 42C53.6968 41.4 53.2635 40.9267 52.6635 40.58C52.0768 40.22 51.4102 40.04 50.6635 40.04C49.5568 40.04 48.6235 40.4267 47.8635 41.2C47.1035 41.96 46.7235 42.8933 46.7235 44C46.7235 45.1067 47.1035 46.0467 47.8635 46.82C48.6235 47.58 49.5568 47.96 50.6635 47.96C51.4102 47.96 52.0768 47.7867 52.6635 47.44C53.2502 47.08 53.7102 46.6 54.0435 46L55.1435 46.64C54.7302 47.44 54.1235 48.0733 53.3235 48.54C52.5235 49.0067 51.6368 49.24 50.6635 49.24ZM63.848 39H65.248L60.968 49.92C60.5814 50.9067 60.028 51.68 59.308 52.24C58.6014 52.8133 57.808 53.0667 56.928 53V51.76C58.128 51.8933 59.0414 51.2 59.668 49.68L59.928 49.06L55.448 39H56.848L60.608 47.38L63.848 39ZM78.328 49H76.728L72.648 44.18V49H71.328V44.18L67.248 49H65.648L70.128 43.8L65.848 39H67.448L71.328 43.44V39H72.648V43.44L76.528 39H78.128L73.848 43.8L78.328 49ZM88.5246 47.72H89.9246V51.68H88.6046V49H80.4446V51.68H79.1246V47.72H80.3446C81.0246 46.8267 81.3646 45.5667 81.3646 43.94V39H88.5246V47.72ZM81.9446 47.72H87.2046V40.28H82.6846V43.94C82.6846 45.4733 82.4379 46.7333 81.9446 47.72ZM96.1509 38.76C97.6309 38.76 98.8242 39.2867 99.7309 40.34C100.651 41.38 101.111 42.6133 101.111 44.04C101.111 44.1867 101.098 44.3933 101.071 44.66H92.2909C92.4242 45.6733 92.8509 46.48 93.5709 47.08C94.3042 47.6667 95.2042 47.96 96.2709 47.96C97.0309 47.96 97.6842 47.8067 98.2309 47.5C98.7909 47.18 99.2109 46.7667 99.4909 46.26L100.651 46.94C100.211 47.6467 99.6109 48.2067 98.8509 48.62C98.0909 49.0333 97.2242 49.24 96.2509 49.24C94.6775 49.24 93.3975 48.7467 92.4109 47.76C91.4242 46.7733 90.9309 45.52 90.9309 44C90.9309 42.5067 91.4175 41.26 92.3909 40.26C93.3642 39.26 94.6175 38.76 96.1509 38.76ZM96.1509 40.04C95.1109 40.04 94.2375 40.3533 93.5309 40.98C92.8375 41.5933 92.4242 42.3933 92.2909 43.38H99.7509C99.6175 42.3267 99.2109 41.5067 98.5309 40.92C97.8509 40.3333 97.0575 40.04 96.1509 40.04ZM110.291 39H111.611V49H110.291V44.64H104.531V49H103.211V39H104.531V43.36H110.291V39ZM121.682 39H122.802V49H121.482V41.3L115.522 49H114.402V39H115.722V46.7L121.682 39ZM130.213 38.76C131.693 38.76 132.887 39.2867 133.793 40.34C134.713 41.38 135.173 42.6133 135.173 44.04C135.173 44.1867 135.16 44.3933 135.133 44.66H126.353C126.487 45.6733 126.913 46.48 127.633 47.08C128.367 47.6667 129.267 47.96 130.333 47.96C131.093 47.96 131.747 47.8067 132.293 47.5C132.853 47.18 133.273 46.7667 133.553 46.26L134.713 46.94C134.273 47.6467 133.673 48.2067 132.913 48.62C132.153 49.0333 131.287 49.24 130.313 49.24C128.74 49.24 127.46 48.7467 126.473 47.76C125.487 46.7733 124.993 45.52 124.993 44C124.993 42.5067 125.48 41.26 126.453 40.26C127.427 39.26 128.68 38.76 130.213 38.76ZM130.213 40.04C129.173 40.04 128.3 40.3533 127.593 40.98C126.9 41.5933 126.487 42.3933 126.353 43.38H133.813C133.68 42.3267 133.273 41.5067 132.593 40.92C131.913 40.3333 131.12 40.04 130.213 40.04Z" fill="#1ED760"/>
</svg>
